<svg xmlns="http://www.w3.org/2000/svg" viewBox="0 0 302.79 224.53"><defs><style>.cls-1{fill:#6191f2;}.cls-2{fill:#3b3ff5;}</style></defs><g id="Layer_2" data-name="Layer 2"><g id="Layer_1-2" data-name="Layer 1"><path class="cls-1" d="M155.55,199.6a106.54,106.54,0,0,1-12.07-6.38c-2.1-1.3-4.13-2.67-6.11-4.08a104.41,104.41,0,1,1,122.28-.22v0a104.67,104.67,0,0,1-35.29,16.57h0l0,0c-1,.26-2,.53-3.08.74a103.7,103.7,0,0,1-45.78,0c-2.37-.55-4.75-1.16-7.11-1.86A108.43,108.43,0,0,1,155.55,199.6Z"/><path class="cls-2" d="M92.42,144.61a20.86,20.86,0,0,0,26.93,12.11l72.49-27.5a20.53,20.53,0,0,1,16.19.62,8.61,8.61,0,0,1,1.14.56,20.74,20.74,0,0,1,9.66,25.48,7.9,7.9,0,0,1-.48,1.18,20.55,20.55,0,0,1-11.7,11.2l-41.82,15.86A20.73,20.73,0,0,0,152.17,198a20.35,20.35,0,0,0,.54,13,20.86,20.86,0,0,0,26.93,12.11L235.41,202a104.45,104.45,0,0,0,66-114.36A105.65,105.65,0,0,0,296,67.38,104.38,104.38,0,0,0,161.36,6.82L94.43,32.2A20.9,20.9,0,0,0,99,72.44h0a20.71,20.71,0,0,0,10.2-1.19l66.93-25.39a20.88,20.88,0,0,1,14.81,39l-86.44,32.8A20.85,20.85,0,0,0,92.42,144.61Z"/><circle class="cls-2" cx="40.24" cy="76.95" r="20.88"/><circle class="cls-2" cx="51.55" cy="161.77" r="20.88"/><circle class="cls-2" cx="51.46" cy="161.8" r="20.88"/><circle class="cls-2" cx="51.37" cy="161.84" r="20.88"/><circle class="cls-2" cx="51.27" cy="161.87" r="20.88"/><circle class="cls-2" cx="51.18" cy="161.91" r="20.88"/><circle class="cls-2" cx="51.09" cy="161.94" r="20.88"/><circle class="cls-2" cx="50.99" cy="161.98" r="20.88"/><circle class="cls-2" cx="50.9" cy="162.01" r="20.88"/><circle class="cls-2" cx="50.81" cy="162.05" r="20.88"/><circle class="cls-2" cx="50.71" cy="162.08" r="20.88"/><circle class="cls-2" cx="50.62" cy="162.12" r="20.88"/><circle class="cls-2" cx="50.53" cy="162.16" r="20.88"/><circle class="cls-2" cx="50.43" cy="162.19" r="20.88"/><circle class="cls-2" cx="50.34" cy="162.23" r="20.88"/><circle class="cls-2" cx="50.25" cy="162.26" r="20.88"/><circle class="cls-2" cx="50.15" cy="162.3" r="20.88"/><circle class="cls-2" cx="50.06" cy="162.33" r="20.88"/><circle class="cls-2" cx="49.96" cy="162.37" r="20.88"/><circle class="cls-2" cx="49.87" cy="162.4" r="20.88"/><circle class="cls-2" cx="49.78" cy="162.44" r="20.88"/><circle class="cls-2" cx="49.68" cy="162.47" r="20.88"/><circle class="cls-2" cx="49.59" cy="162.51" r="20.88"/><circle class="cls-2" cx="49.5" cy="162.55" r="20.88"/><circle class="cls-2" cx="49.4" cy="162.58" r="20.88"/><circle class="cls-2" cx="49.31" cy="162.62" r="20.88"/><circle class="cls-2" cx="49.22" cy="162.65" r="20.88"/><circle class="cls-2" cx="49.12" cy="162.69" r="20.88"/><circle class="cls-2" cx="49.03" cy="162.72" r="20.88"/><circle class="cls-2" cx="48.94" cy="162.76" r="20.88"/><circle class="cls-2" cx="48.84" cy="162.79" r="20.88"/><circle class="cls-2" cx="48.75" cy="162.83" r="20.88"/><circle class="cls-2" cx="48.66" cy="162.86" r="20.88"/><circle class="cls-2" cx="48.56" cy="162.9" r="20.88"/><circle class="cls-2" cx="48.47" cy="162.94" r="20.88"/><circle class="cls-2" cx="48.38" cy="162.97" r="20.88"/><circle class="cls-2" cx="48.28" cy="163.01" r="20.88"/><circle class="cls-2" cx="48.19" cy="163.04" r="20.88"/><circle class="cls-2" cx="48.09" cy="163.08" r="20.88"/><circle class="cls-2" cx="48" cy="163.11" r="20.88"/><circle class="cls-2" cx="47.91" cy="163.15" r="20.88"/><circle class="cls-2" cx="47.81" cy="163.18" r="20.88"/><circle class="cls-2" cx="47.72" cy="163.22" r="20.88"/><circle class="cls-2" cx="47.63" cy="163.26" r="20.88"/><circle class="cls-2" cx="47.53" cy="163.29" r="20.88"/><circle class="cls-2" cx="47.44" cy="163.33" r="20.88"/><circle class="cls-2" cx="47.35" cy="163.36" r="20.88"/><circle class="cls-2" cx="47.25" cy="163.4" r="20.88"/><circle class="cls-2" cx="47.16" cy="163.43" r="20.88"/><circle class="cls-2" cx="47.07" cy="163.47" r="20.88"/><circle class="cls-2" cx="46.97" cy="163.5" r="20.88"/><circle class="cls-2" cx="46.88" cy="163.54" r="20.88"/><circle class="cls-2" cx="46.79" cy="163.57" r="20.88"/><circle class="cls-2" cx="46.69" cy="163.61" r="20.88"/><circle class="cls-2" cx="46.6" cy="163.65" r="20.88"/><circle class="cls-2" cx="46.5" cy="163.68" r="20.88"/><circle class="cls-2" cx="46.41" cy="163.72" r="20.88"/><circle class="cls-2" cx="46.32" cy="163.75" r="20.88"/><circle class="cls-2" cx="46.22" cy="163.79" r="20.88"/><circle class="cls-2" cx="46.13" cy="163.82" r="20.88"/><circle class="cls-2" cx="46.04" cy="163.86" r="20.88"/><circle class="cls-2" cx="45.94" cy="163.89" r="20.88"/><circle class="cls-2" cx="45.85" cy="163.93" r="20.88"/><circle class="cls-2" cx="45.76" cy="163.96" r="20.88"/><circle class="cls-2" cx="45.66" cy="164" r="20.88"/><circle class="cls-2" cx="45.57" cy="164.04" r="20.88"/><circle class="cls-2" cx="45.48" cy="164.07" r="20.88"/><circle class="cls-2" cx="45.38" cy="164.11" r="20.88"/><circle class="cls-2" cx="45.29" cy="164.14" r="20.88"/><circle class="cls-2" cx="45.2" cy="164.18" r="20.88"/><circle class="cls-2" cx="45.1" cy="164.21" r="20.88"/><circle class="cls-2" cx="45.01" cy="164.25" r="20.88"/><circle class="cls-2" cx="44.92" cy="164.28" r="20.88"/><circle class="cls-2" cx="44.82" cy="164.32" r="20.88"/><circle class="cls-2" cx="44.73" cy="164.35" r="20.88"/><circle class="cls-2" cx="44.63" cy="164.39" r="20.88"/><circle class="cls-2" cx="44.54" cy="164.43" r="20.88"/><circle class="cls-2" cx="44.45" cy="164.46" r="20.88"/><circle class="cls-2" cx="44.35" cy="164.5" r="20.88"/><circle class="cls-2" cx="44.26" cy="164.53" r="20.88"/><circle class="cls-2" cx="44.17" cy="164.57" r="20.88"/><circle class="cls-2" cx="44.07" cy="164.6" r="20.88"/><circle class="cls-2" cx="43.98" cy="164.64" r="20.88"/><circle class="cls-2" cx="43.89" cy="164.67" r="20.88"/><circle class="cls-2" cx="43.79" cy="164.71" r="20.88"/><circle class="cls-2" cx="43.7" cy="164.75" r="20.88"/><circle class="cls-2" cx="43.61" cy="164.78" r="20.88"/><circle class="cls-2" cx="43.51" cy="164.82" r="20.88"/><circle class="cls-2" cx="43.42" cy="164.85" r="20.88"/><circle class="cls-2" cx="43.33" cy="164.89" r="20.88"/><circle class="cls-2" cx="43.23" cy="164.92" r="20.88"/><circle class="cls-2" cx="43.14" cy="164.96" r="20.88"/><circle class="cls-2" cx="43.04" cy="164.99" r="20.88"/><circle class="cls-2" cx="42.95" cy="165.03" r="20.88"/><circle class="cls-2" cx="42.86" cy="165.06" r="20.88"/><circle class="cls-2" cx="42.76" cy="165.1" r="20.88"/><circle class="cls-2" cx="42.67" cy="165.14" r="20.88"/><circle class="cls-2" cx="42.58" cy="165.17" r="20.88"/><circle class="cls-2" cx="42.48" cy="165.21" r="20.88"/><circle class="cls-2" cx="42.39" cy="165.24" r="20.88"/><circle class="cls-2" cx="42.3" cy="165.28" r="20.88"/><circle class="cls-2" cx="42.2" cy="165.31" r="20.88"/><circle class="cls-2" cx="42.11" cy="165.35" r="20.88"/><circle class="cls-2" cx="42.02" cy="165.38" r="20.88"/><circle class="cls-2" cx="41.92" cy="165.42" r="20.88"/><circle class="cls-2" cx="41.83" cy="165.45" r="20.88"/><circle class="cls-2" cx="41.74" cy="165.49" r="20.88"/><circle class="cls-2" cx="41.64" cy="165.53" r="20.88"/><circle class="cls-2" cx="41.55" cy="165.56" r="20.88"/><circle class="cls-2" cx="41.46" cy="165.6" r="20.88"/><circle class="cls-2" cx="41.36" cy="165.63" r="20.88"/><circle class="cls-2" cx="41.27" cy="165.67" r="20.88"/><circle class="cls-2" cx="41.17" cy="165.7" r="20.88"/><circle class="cls-2" cx="41.08" cy="165.74" r="20.88"/><circle class="cls-2" cx="40.99" cy="165.77" r="20.88"/><circle class="cls-2" cx="40.89" cy="165.81" r="20.88"/><circle class="cls-2" cx="40.8" cy="165.84" r="20.88"/><circle class="cls-2" cx="40.71" cy="165.88" r="20.88"/><circle class="cls-2" cx="40.61" cy="165.92" r="20.88"/><circle class="cls-2" cx="40.52" cy="165.95" r="20.88"/><circle class="cls-2" cx="40.43" cy="165.99" r="20.88"/><circle class="cls-2" cx="40.33" cy="166.02" r="20.88"/><circle class="cls-2" cx="40.24" cy="166.06" r="20.88"/><circle class="cls-2" cx="40.15" cy="166.09" r="20.88"/><circle class="cls-2" cx="40.05" cy="166.13" r="20.88"/><circle class="cls-2" cx="39.96" cy="166.16" r="20.88"/><circle class="cls-2" cx="39.87" cy="166.2" r="20.88"/><circle class="cls-2" cx="39.77" cy="166.24" r="20.88"/><circle class="cls-2" cx="39.68" cy="166.27" r="20.88"/><circle class="cls-2" cx="39.58" cy="166.31" r="20.88"/><circle class="cls-2" cx="39.49" cy="166.34" r="20.88"/><circle class="cls-2" cx="39.4" cy="166.38" r="20.88"/><circle class="cls-2" cx="39.3" cy="166.41" r="20.88"/><circle class="cls-2" cx="39.21" cy="166.45" r="20.88"/><circle class="cls-2" cx="39.12" cy="166.48" r="20.88"/><circle class="cls-2" cx="39.02" cy="166.52" r="20.88"/><circle class="cls-2" cx="38.93" cy="166.55" r="20.88"/><circle class="cls-2" cx="38.84" cy="166.59" r="20.88"/><circle class="cls-2" cx="38.74" cy="166.63" r="20.88"/><circle class="cls-2" cx="38.65" cy="166.66" r="20.88"/><circle class="cls-2" cx="38.56" cy="166.7" r="20.88"/><circle class="cls-2" cx="38.46" cy="166.73" r="20.88"/><circle class="cls-2" cx="38.37" cy="166.77" r="20.88"/><circle class="cls-2" cx="38.28" cy="166.8" r="20.88"/><circle class="cls-2" cx="38.18" cy="166.84" r="20.88"/><circle class="cls-2" cx="38.09" cy="166.87" r="20.88"/><circle class="cls-2" cx="38" cy="166.91" r="20.88"/><circle class="cls-2" cx="37.9" cy="166.94" r="20.88"/><circle class="cls-2" cx="37.81" cy="166.98" r="20.88"/><circle class="cls-2" cx="37.71" cy="167.02" r="20.88"/><circle class="cls-2" cx="37.62" cy="167.05" r="20.88"/><circle class="cls-2" cx="37.53" cy="167.09" r="20.88"/><circle class="cls-2" cx="37.43" cy="167.12" r="20.88"/><circle class="cls-2" cx="37.34" cy="167.16" r="20.88"/><circle class="cls-2" cx="37.25" cy="167.19" r="20.88"/><circle class="cls-2" cx="37.15" cy="167.23" r="20.88"/><circle class="cls-2" cx="37.06" cy="167.26" r="20.88"/><circle class="cls-2" cx="36.97" cy="167.3" r="20.88"/><circle class="cls-2" cx="36.87" cy="167.33" r="20.88"/><circle class="cls-2" cx="36.78" cy="167.37" r="20.88"/><circle class="cls-2" cx="36.69" cy="167.41" r="20.88"/><circle class="cls-2" cx="36.59" cy="167.44" r="20.88"/><circle class="cls-2" cx="36.5" cy="167.48" r="20.88"/><circle class="cls-2" cx="36.41" cy="167.51" r="20.88"/><circle class="cls-2" cx="36.31" cy="167.55" r="20.88"/><circle class="cls-2" cx="36.22" cy="167.58" r="20.88"/><circle class="cls-2" cx="36.12" cy="167.62" r="20.88"/><circle class="cls-2" cx="36.03" cy="167.65" r="20.88"/><circle class="cls-2" cx="35.94" cy="167.69" r="20.88"/><circle class="cls-2" cx="35.84" cy="167.73" r="20.88"/><circle class="cls-2" cx="35.75" cy="167.76" r="20.88"/><circle class="cls-2" cx="35.66" cy="167.8" r="20.88"/><circle class="cls-2" cx="35.56" cy="167.83" r="20.88"/><circle class="cls-2" cx="35.47" cy="167.87" r="20.88"/><circle class="cls-2" cx="35.38" cy="167.9" r="20.88"/><circle class="cls-2" cx="35.28" cy="167.94" r="20.88"/><circle class="cls-2" cx="35.19" cy="167.97" r="20.88"/><circle class="cls-2" cx="35.1" cy="168.01" r="20.88"/><circle class="cls-2" cx="35" cy="168.04" r="20.88"/><circle class="cls-2" cx="34.91" cy="168.08" r="20.88"/><circle class="cls-2" cx="34.82" cy="168.12" r="20.88"/><circle class="cls-2" cx="34.72" cy="168.15" r="20.88"/><circle class="cls-2" cx="34.63" cy="168.19" r="20.88"/><circle class="cls-2" cx="34.54" cy="168.22" r="20.88"/><circle class="cls-2" cx="34.44" cy="168.26" r="20.88"/><circle class="cls-2" cx="34.35" cy="168.29" r="20.88"/><circle class="cls-2" cx="34.25" cy="168.33" r="20.88"/><circle class="cls-2" cx="34.16" cy="168.36" r="20.88"/><circle class="cls-2" cx="34.07" cy="168.4" r="20.88"/><circle class="cls-2" cx="33.97" cy="168.43" r="20.88"/><circle class="cls-2" cx="33.88" cy="168.47" r="20.88"/><circle class="cls-2" cx="33.79" cy="168.51" r="20.88"/><circle class="cls-2" cx="33.69" cy="168.54" r="20.88"/><circle class="cls-2" cx="33.6" cy="168.58" r="20.88"/><circle class="cls-2" cx="33.51" cy="168.61" r="20.88"/><circle class="cls-2" cx="33.41" cy="168.65" r="20.88"/><circle class="cls-2" cx="33.32" cy="168.68" r="20.88"/><circle class="cls-2" cx="33.23" cy="168.72" r="20.88"/><circle class="cls-2" cx="33.13" cy="168.75" r="20.88"/><circle class="cls-2" cx="33.04" cy="168.79" r="20.88"/><circle class="cls-2" cx="32.95" cy="168.83" r="20.88"/><circle class="cls-2" cx="32.85" cy="168.86" r="20.88"/><circle class="cls-2" cx="32.76" cy="168.9" r="20.88"/><circle class="cls-2" cx="32.66" cy="168.93" r="20.88"/><circle class="cls-2" cx="32.57" cy="168.97" r="20.88"/><circle class="cls-2" cx="32.48" cy="169" r="20.88"/><circle class="cls-2" cx="32.38" cy="169.04" r="20.88"/><circle class="cls-2" cx="32.29" cy="169.07" r="20.88"/><circle class="cls-2" cx="32.2" cy="169.11" r="20.88"/><circle class="cls-2" cx="32.1" cy="169.14" r="20.88"/><circle class="cls-2" cx="32.01" cy="169.18" r="20.88"/><circle class="cls-2" cx="31.92" cy="169.22" r="20.88"/><circle class="cls-2" cx="31.82" cy="169.25" r="20.88"/><circle class="cls-2" cx="31.73" cy="169.29" r="20.88"/><circle class="cls-2" cx="31.64" cy="169.32" r="20.88"/><circle class="cls-2" cx="31.54" cy="169.36" r="20.88"/><circle class="cls-2" cx="31.45" cy="169.39" r="20.88"/><circle class="cls-2" cx="31.36" cy="169.43" r="20.88"/><circle class="cls-2" cx="31.26" cy="169.46" r="20.88"/><circle class="cls-2" cx="31.17" cy="169.5" r="20.88"/><circle class="cls-2" cx="31.08" cy="169.53" r="20.88"/><circle class="cls-2" cx="30.98" cy="169.57" r="20.88"/><circle class="cls-2" cx="30.89" cy="169.61" r="20.88"/><circle class="cls-2" cx="30.79" cy="169.64" r="20.88"/><circle class="cls-2" cx="30.7" cy="169.68" r="20.88"/><circle class="cls-2" cx="30.61" cy="169.71" r="20.88"/><circle class="cls-2" cx="30.51" cy="169.75" r="20.88"/><circle class="cls-2" cx="30.42" cy="169.78" r="20.88"/><circle class="cls-2" cx="30.33" cy="169.82" r="20.88"/><circle class="cls-2" cx="30.23" cy="169.85" r="20.88"/><circle class="cls-2" cx="30.14" cy="169.89" r="20.88"/><circle class="cls-2" cx="30.05" cy="169.92" r="20.88"/><circle class="cls-2" cx="29.95" cy="169.96" r="20.88"/><circle class="cls-2" cx="29.86" cy="170" r="20.88"/><circle class="cls-2" cx="29.77" cy="170.03" r="20.88"/><circle class="cls-2" cx="29.67" cy="170.07" r="20.88"/><circle class="cls-2" cx="29.58" cy="170.1" r="20.88"/><circle class="cls-2" cx="29.49" cy="170.14" r="20.88"/><circle class="cls-2" cx="29.39" cy="170.17" r="20.88"/><circle class="cls-2" cx="29.3" cy="170.21" r="20.88"/><circle class="cls-2" cx="29.2" cy="170.24" r="20.88"/><circle class="cls-2" cx="29.11" cy="170.28" r="20.88"/><circle class="cls-2" cx="29.02" cy="170.32" r="20.88"/><circle class="cls-2" cx="28.92" cy="170.35" r="20.88"/><circle class="cls-2" cx="28.83" cy="170.39" r="20.88"/><circle class="cls-2" cx="28.74" cy="170.42" r="20.88"/><circle class="cls-2" cx="28.64" cy="170.46" r="20.88"/><circle class="cls-2" cx="28.55" cy="170.49" r="20.88"/><circle class="cls-2" cx="28.46" cy="170.53" r="20.88"/><circle class="cls-2" cx="28.36" cy="170.56" r="20.88"/><circle class="cls-2" cx="28.27" cy="170.6" r="20.88"/><circle class="cls-2" cx="28.18" cy="170.63" r="20.88"/><circle class="cls-2" cx="28.08" cy="170.67" r="20.88"/><circle class="cls-2" cx="27.99" cy="170.71" r="20.88"/><circle class="cls-2" cx="27.9" cy="170.74" r="20.88"/><circle class="cls-2" cx="27.8" cy="170.78" r="20.88"/><circle class="cls-2" cx="27.71" cy="170.81" r="20.88"/><circle class="cls-2" cx="27.62" cy="170.85" r="20.88"/><circle class="cls-2" cx="27.52" cy="170.88" r="20.88"/><circle class="cls-2" cx="27.43" cy="170.92" r="20.88"/><circle class="cls-2" cx="27.33" cy="170.95" r="20.88"/><circle class="cls-2" cx="27.24" cy="170.99" r="20.88"/><circle class="cls-2" cx="27.15" cy="171.02" r="20.88"/><circle class="cls-2" cx="27.05" cy="171.06" r="20.88"/><circle class="cls-2" cx="26.96" cy="171.1" r="20.88"/><circle class="cls-2" cx="26.87" cy="171.13" r="20.88"/><circle class="cls-2" cx="26.77" cy="171.17" r="20.88"/><circle class="cls-2" cx="26.68" cy="171.2" r="20.88"/><circle class="cls-2" cx="26.59" cy="171.24" r="20.88"/><circle class="cls-2" cx="26.49" cy="171.27" r="20.88"/><circle class="cls-2" cx="26.4" cy="171.31" r="20.88"/><circle class="cls-2" cx="26.31" cy="171.34" r="20.88"/><circle class="cls-2" cx="26.21" cy="171.38" r="20.88"/><circle class="cls-2" cx="26.12" cy="171.41" r="20.88"/><circle class="cls-2" cx="26.03" cy="171.45" r="20.88"/><circle class="cls-2" cx="25.93" cy="171.49" r="20.88"/><circle class="cls-2" cx="25.84" cy="171.52" r="20.88"/><circle class="cls-2" cx="25.74" cy="171.56" r="20.88"/><circle class="cls-2" cx="25.65" cy="171.59" r="20.88"/><circle class="cls-2" cx="25.56" cy="171.63" r="20.88"/><circle class="cls-2" cx="25.46" cy="171.66" r="20.88"/><circle class="cls-2" cx="25.37" cy="171.7" r="20.88"/><circle class="cls-2" cx="25.28" cy="171.73" r="20.88"/><circle class="cls-2" cx="25.18" cy="171.77" r="20.88"/><circle class="cls-2" cx="25.09" cy="171.81" r="20.88"/><circle class="cls-2" cx="25" cy="171.84" r="20.88"/><circle class="cls-2" cx="24.9" cy="171.88" r="20.88"/><circle class="cls-2" cx="24.81" cy="171.91" r="20.88"/><circle class="cls-2" cx="24.72" cy="171.95" r="20.88"/><circle class="cls-2" cx="24.62" cy="171.98" r="20.88"/><circle class="cls-2" cx="24.53" cy="172.02" r="20.88"/><circle class="cls-2" cx="24.44" cy="172.05" r="20.88"/><circle class="cls-2" cx="24.34" cy="172.09" r="20.88"/><circle class="cls-2" cx="24.25" cy="172.12" r="20.88"/><circle class="cls-2" cx="24.15" cy="172.16" r="20.88"/><circle class="cls-2" cx="24.06" cy="172.2" r="20.88"/><circle class="cls-2" cx="23.97" cy="172.23" r="20.88"/><circle class="cls-2" cx="23.87" cy="172.27" r="20.88"/><circle class="cls-2" cx="23.78" cy="172.3" r="20.88"/><circle class="cls-2" cx="23.69" cy="172.34" r="20.88"/><circle class="cls-2" cx="23.59" cy="172.37" r="20.88"/><circle class="cls-2" cx="23.5" cy="172.41" r="20.88"/><circle class="cls-2" cx="23.41" cy="172.44" r="20.88"/><circle class="cls-2" cx="23.31" cy="172.48" r="20.88"/><circle class="cls-2" cx="23.22" cy="172.51" r="20.88"/><circle class="cls-2" cx="23.13" cy="172.55" r="20.88"/><circle class="cls-2" cx="23.03" cy="172.59" r="20.88"/><circle class="cls-2" cx="22.94" cy="172.62" r="20.88"/><circle class="cls-2" cx="22.85" cy="172.66" r="20.88"/><circle class="cls-2" cx="22.75" cy="172.69" r="20.88"/><circle class="cls-2" cx="22.66" cy="172.73" r="20.88"/><circle class="cls-2" cx="22.57" cy="172.76" r="20.88"/><circle class="cls-2" cx="22.47" cy="172.8" r="20.88"/><circle class="cls-2" cx="22.38" cy="172.83" r="20.88"/><circle class="cls-2" cx="22.28" cy="172.87" r="20.88"/><circle class="cls-2" cx="22.19" cy="172.9" r="20.88"/><circle class="cls-2" cx="22.1" cy="172.94" r="20.88"/><circle class="cls-2" cx="22" cy="172.98" r="20.88"/><circle class="cls-2" cx="21.91" cy="173.01" r="20.88"/><circle class="cls-2" cx="21.82" cy="173.05" r="20.88"/><circle class="cls-2" cx="21.72" cy="173.08" r="20.88"/><circle class="cls-2" cx="21.63" cy="173.12" r="20.88"/><circle class="cls-2" cx="21.54" cy="173.15" r="20.88"/><circle class="cls-2" cx="21.44" cy="173.19" r="20.88"/><circle class="cls-2" cx="21.35" cy="173.22" r="20.88"/><circle class="cls-2" cx="21.26" cy="173.26" r="20.88"/><circle class="cls-2" cx="21.16" cy="173.3" r="20.88"/><circle class="cls-2" cx="21.07" cy="173.33" r="20.88"/><circle class="cls-2" cx="20.98" cy="173.37" r="20.88"/><circle class="cls-2" cx="20.88" cy="173.4" r="20.88"/></g></g></svg>